<svg width="60" height="60" viewBox="0 0 60 60" fill="none" xmlns="http://www.w3.org/2000/svg">
<path fill-rule="evenodd" clip-rule="evenodd" d="M29 0V4.05C15.452 4.57 4.568 15.452 4.05 29H0V31H4.05C4.57 44.546 15.454 55.432 29 55.95V60H31V55.95C44.546 55.43 55.432 44.546 55.95 31H60V29H55.95C55.432 15.452 44.548 4.568 31 4.05V0H29ZM29 6.05V10H31V6.05C37.0084 6.29466 42.7047 8.79113 46.9568 13.0432C51.2089 17.2953 53.7053 22.9916 53.95 29H50V31H53.95C53.7053 37.0084 51.2089 42.7047 46.9568 46.9568C42.7047 51.2089 37.0084 53.7053 31 53.95V50H29V53.95C22.9916 53.7053 17.2953 51.2089 13.0432 46.9568C8.79113 42.7047 6.29466 37.0084 6.05 31H10V29H6.05C6.29466 22.9916 8.79113 17.2953 13.0432 13.0432C17.2953 8.79113 22.9916 6.29466 29 6.05ZM29.972 12C25.432 12 21.734 15.728 21.734 20.29C21.734 22.826 22.904 25.076 24.704 26.598C18.968 27.078 14.468 31.908 14.468 37.798V44.964C14.468 45.2292 14.5734 45.4836 14.7609 45.6711C14.9484 45.8586 15.2028 45.964 15.468 45.964H21.016C21.1882 46.0109 21.3698 46.0109 21.542 45.964H38.454C38.6262 46.0109 38.8078 46.0109 38.98 45.964H44.532C44.7972 45.964 45.0516 45.8586 45.2391 45.6711C45.4266 45.4836 45.532 45.2292 45.532 44.964V37.796C45.532 31.89 41.004 27.052 35.242 26.596C37.04 25.076 38.208 22.826 38.208 20.29C38.208 15.73 34.514 12 29.972 12ZM29.972 14C30.795 14.0016 31.6097 14.1657 32.3691 14.483C33.1285 14.8004 33.8177 15.2646 34.3971 15.8491C34.9766 16.4336 35.4349 17.1268 35.7456 17.8889C36.0564 18.651 36.2135 19.467 36.208 20.29C36.208 23.71 33.526 26.45 30.164 26.554H29.782C28.1562 26.5045 26.6141 25.8219 25.4843 24.6518C24.3545 23.4816 23.7265 21.9165 23.734 20.29C23.7287 19.4667 23.8862 18.6505 24.1973 17.8883C24.5084 17.126 24.967 16.4327 25.5469 15.8482C26.1267 15.2638 26.8163 14.7996 27.576 14.4824C28.3358 14.1652 29.1507 14.0013 29.974 14H29.972ZM25.64 28.554H29.786C29.85 28.556 29.908 28.574 29.972 28.574C30.036 28.574 30.096 28.556 30.16 28.554H34.36C39.454 28.554 43.532 32.656 43.532 37.796V43.964H39.718V38.376C39.7196 38.2425 39.6945 38.11 39.6441 37.9864C39.5937 37.8627 39.519 37.7504 39.4245 37.6561C39.33 37.5618 39.2175 37.4873 39.0938 37.4372C38.97 37.387 38.8375 37.3621 38.704 37.364C38.4391 37.3677 38.1865 37.4763 38.0017 37.6661C37.8168 37.8558 37.7148 38.1111 37.718 38.376V43.964H22.282V38.376C22.2836 38.2423 22.2584 38.1097 22.2079 37.9859C22.1573 37.8621 22.0825 37.7497 21.9878 37.6554C21.8931 37.561 21.7804 37.4866 21.6564 37.4366C21.5324 37.3865 21.3997 37.3618 21.266 37.364C21.0015 37.3682 20.7494 37.4771 20.565 37.6668C20.3805 37.8564 20.2788 38.1115 20.282 38.376V43.964H16.468V37.796C16.468 32.656 20.546 28.554 25.64 28.554Z" fill="#00367D"/>
</svg>
