<svg width="61" height="63" viewBox="0 0 61 63" fill="none" xmlns="http://www.w3.org/2000/svg">
<path fill-rule="evenodd" clip-rule="evenodd" d="M30.9629 0.96814C27.7251 0.96814 25.0915 3.64671 25.0915 6.90385C25.0915 8.41671 25.6744 9.786 26.6065 10.8381C23.0151 11.5131 20.2701 14.5753 20.2701 18.276V22.4546C20.2701 22.7387 20.383 23.0113 20.5839 23.2122C20.7848 23.4131 21.0574 23.526 21.3415 23.526H25.3765C25.5386 23.5643 25.7073 23.5643 25.8694 23.526H36.0908C36.2529 23.5643 36.4216 23.5643 36.5837 23.526H40.6272C40.9114 23.526 41.1839 23.4131 41.3848 23.2122C41.5858 23.0113 41.6987 22.7387 41.6987 22.4546V18.276C41.6987 14.5603 38.9344 11.4939 35.3237 10.8339C36.0842 9.98609 36.5838 8.93676 36.7624 7.81194C36.941 6.68711 36.7911 5.53464 36.3305 4.49298C35.87 3.45133 35.1185 2.56479 34.1664 1.93989C33.2142 1.31499 32.1018 0.976159 30.9629 0.96814ZM30.9629 3.111C33.0308 3.111 34.6958 4.791 34.6958 6.90385C34.6958 9.01885 33.0308 10.6967 30.9629 10.6967C28.8972 10.6967 27.2344 9.01885 27.2344 6.90385C27.2344 4.791 28.8972 3.111 30.9629 3.111ZM38.2551 5.25385L37.7194 7.33243L38.6151 7.56171L41.0001 8.43171L41.5487 8.69957L42.4808 6.76671L41.8744 6.47743L41.7779 6.43457L39.3179 5.53457L39.2172 5.50243L38.2529 5.256L38.2551 5.25385ZM22.8779 5.50243L21.7679 5.83028L21.6887 5.85814L19.7729 6.621L19.6915 6.65314L18.7379 7.12243L19.6808 9.04671L20.5958 8.59671L22.3958 7.881H22.4215L23.5058 7.54885L22.8779 5.50243ZM44.4908 7.77171L43.3765 9.59528L45.3737 10.8103L46.8544 11.9181L48.1358 10.2039L46.6037 9.051L46.5158 9.00171L44.4908 7.77171ZM16.7837 8.17243L16.0229 8.62243L15.9501 8.66528L14.2808 9.82671L14.2165 9.876L13.1558 10.7396L14.5058 12.4003L15.5365 11.5646L17.1051 10.4717L17.1394 10.4503L17.8679 10.0196L16.7837 8.17243ZM49.8437 11.6653L48.3994 13.2446L49.1644 13.941L50.8401 15.786L51.1701 16.2296L52.8908 14.9439L52.5137 14.4424L52.4472 14.3631L50.7179 12.4667L50.6472 12.396L49.8437 11.6653ZM11.5079 12.2374L11.1094 12.606L11.0537 12.6639L9.6908 14.1639L9.63509 14.2239L8.58509 15.576L10.2758 16.8917L11.2765 15.606H11.2851L12.6201 14.1339L12.6415 14.1124L12.9801 13.7931L11.5079 12.2374ZM28.0915 12.8396H33.8751C37.0615 12.8396 39.5558 15.2696 39.5558 18.276V21.3831H37.4087V18.0531C37.411 17.9099 37.3845 17.7677 37.3309 17.6348C37.2773 17.502 37.1976 17.3813 37.0965 17.2798C36.9954 17.1783 36.875 17.0981 36.7424 17.044C36.6097 16.9898 36.4676 16.9628 36.3244 16.9646C36.1833 16.9662 36.044 16.9958 35.9143 17.0514C35.7847 17.1071 35.6673 17.1878 35.569 17.289C35.4706 17.3901 35.3932 17.5097 35.3412 17.6408C35.2892 17.772 35.2635 17.9121 35.2658 18.0531V21.3789H26.6944V18.0553C26.6967 17.9121 26.6702 17.7698 26.6166 17.637C26.563 17.5042 26.4833 17.3834 26.3822 17.2819C26.2811 17.1805 26.1607 17.1003 26.0281 17.0461C25.8955 16.992 25.7533 16.965 25.6101 16.9667C25.469 16.9684 25.3297 16.9979 25.2 17.0536C25.0704 17.1092 24.953 17.19 24.8547 17.2911C24.7563 17.3923 24.6789 17.5118 24.6269 17.643C24.5749 17.7741 24.5492 17.9142 24.5515 18.0553V21.381H22.4129V18.276C22.4129 15.2696 24.9072 12.8396 28.0915 12.8396ZM54.2129 16.7567L52.3829 17.871L53.5937 19.866L54.3972 21.5331L56.3258 20.5989L55.5008 18.891L55.4515 18.7989L54.2129 16.7567ZM7.33366 17.406L7.2158 17.5903L7.17295 17.661L6.17437 19.4439L6.1358 19.5146L5.28723 21.3574L7.22866 22.2574L8.04295 20.4896L8.06223 20.4617L8.99866 18.7753L9.01152 18.7539L9.11866 18.5953L7.33366 17.406ZM57.1679 22.6839L55.1537 23.421L55.5351 24.4539L56.1758 26.9396L56.2337 27.3381L58.3551 27.0167L58.2844 26.5624L58.2629 26.4574L57.6029 23.8924L57.5729 23.7874L57.1679 22.6839ZM4.48366 23.5239L3.92652 25.4781L3.90509 25.5596L3.49152 27.6253L3.47437 27.711L3.45723 27.8524L5.58723 28.1074L5.60438 27.9703L5.99866 26.0203L6.54295 24.1131L4.48366 23.5239ZM30.9694 25.6046C30.8285 25.6065 30.6894 25.6362 30.56 25.692C30.4306 25.7478 30.3135 25.8286 30.2154 25.9297C30.1172 26.0308 30.04 26.1503 29.9881 26.2813C29.9362 26.4123 29.9107 26.5523 29.9129 26.6931V34.7503L20.7608 40.8724C20.6339 40.9457 20.5234 41.0443 20.4361 41.162C20.3488 41.2797 20.2866 41.414 20.2533 41.5568C20.22 41.6995 20.2164 41.8475 20.2426 41.9917C20.2687 42.1358 20.3242 42.2731 20.4056 42.395C20.4869 42.5169 20.5924 42.6208 20.7155 42.7003C20.8386 42.7798 20.9767 42.8332 21.1213 42.8572C21.2659 42.8811 21.4138 42.8752 21.556 42.8398C21.6982 42.8043 21.8316 42.7401 21.9479 42.651L31.0101 36.591L40.0165 42.651C40.2524 42.8096 40.5415 42.8679 40.8204 42.8133C41.0993 42.7586 41.3451 42.5954 41.5037 42.3596C41.6622 42.1237 41.7206 41.8345 41.6659 41.5556C41.6113 41.2768 41.4481 41.031 41.2122 40.8724L32.0558 34.7117V26.6931C32.0581 26.5495 32.0315 26.407 31.9777 26.2738C31.9238 26.1407 31.8437 26.0198 31.7421 25.9182C31.6406 25.8167 31.5197 25.7366 31.3865 25.6827C31.2534 25.6288 31.1108 25.6023 30.9672 25.6046H30.9694ZM58.6765 29.1253L56.7244 29.4296H56.5615V29.4553L56.6944 32.1124L56.5679 34.6281L58.7108 34.7353L58.8415 32.1681L57.7701 32.1167L58.8415 32.0631L58.7044 29.3203L58.6915 29.2131L58.6765 29.1253ZM3.20652 30.0681L3.12723 32.0781V32.1724L3.24509 34.4417L5.38366 34.3346L5.27437 32.1103L5.34938 30.1517L3.20652 30.066V30.0681ZM5.64723 36.3574L3.52795 36.6746L3.68437 37.6817L3.7058 37.7931L4.3658 40.3539L4.3958 40.461L4.61009 41.0396L6.62223 40.3024L6.43366 39.7924L5.79295 37.3067L5.64723 36.3574ZM56.2765 36.6489L56.1758 37.3024L55.5351 39.7924L55.2458 40.5789L57.2558 41.316L57.5729 40.4589L57.6029 40.3517L58.2629 37.7889L58.2844 37.6817L58.3937 36.9724L56.2765 36.6489ZM11.6837 39.5417C8.44366 39.5417 5.8058 42.2203 5.8058 45.4774C5.8058 46.9881 6.3908 48.3574 7.32509 49.4096C3.73152 50.0824 0.984375 53.1424 0.984375 56.8474V61.026C0.984375 61.3102 1.09726 61.5827 1.29819 61.7836C1.49912 61.9846 1.77164 62.0974 2.0558 62.0974H6.0908C6.25423 62.1364 6.42452 62.1364 6.58795 62.0974H16.8051C16.9685 62.1364 17.1388 62.1364 17.3022 62.0974H21.3458C21.63 62.0974 21.9025 61.9846 22.1034 61.7836C22.3043 61.5827 22.4172 61.3102 22.4172 61.026V56.8474C22.4172 53.1317 19.6529 50.0653 16.0422 49.4053C16.8028 48.5575 17.3024 47.5082 17.481 46.3834C17.6596 45.2585 17.5096 44.1061 17.0491 43.0644C16.5886 42.0228 15.8371 41.1362 14.8849 40.5113C13.9328 39.8864 12.8225 39.5497 11.6837 39.5417ZM50.2487 39.5417C47.0108 39.5417 44.3729 42.2203 44.3729 45.4774C44.3729 46.9881 44.9579 48.3574 45.8922 49.4096C42.2987 50.0824 39.5515 53.1424 39.5515 56.8474V61.026C39.5515 61.3102 39.6644 61.5827 39.8653 61.7836C40.0663 61.9846 40.3388 62.0974 40.6229 62.0974H44.6622C44.8243 62.1357 44.993 62.1357 45.1551 62.0974H55.3765C55.5386 62.1357 55.7073 62.1357 55.8694 62.0974H59.9129C60.1971 62.0974 60.4696 61.9846 60.6706 61.7836C60.8715 61.5827 60.9844 61.3102 60.9844 61.026V56.8474C60.9844 53.1317 58.2201 50.0653 54.6094 49.4053C55.3699 48.5575 55.8695 47.5082 56.0481 46.3834C56.2267 45.2585 56.0768 44.1061 55.6162 43.0644C55.1557 42.0228 54.4042 41.1362 53.4521 40.5113C52.4999 39.8864 51.3875 39.5497 50.2487 39.5417ZM11.6815 41.6846C13.7494 41.6846 15.4144 43.3624 15.4144 45.4774C15.4144 47.5903 13.7494 49.2681 11.6815 49.2681C11.1868 49.2662 10.6974 49.1663 10.2414 48.9743C9.78549 48.7822 9.37209 48.5018 9.02507 48.1492C8.67804 47.7966 8.40426 47.3788 8.21952 46.9199C8.03477 46.4609 7.94272 45.97 7.94866 45.4753C7.94866 43.3624 9.6158 41.6846 11.6815 41.6846ZM50.2487 41.6846C52.3165 41.6846 53.9815 43.3624 53.9815 45.4774C53.9815 47.5903 52.3165 49.2681 50.2487 49.2681C49.7539 49.2662 49.2645 49.1663 48.8086 48.9743C48.3526 48.7822 47.9392 48.5018 47.5922 48.1492C47.2452 47.7966 46.9714 47.3788 46.7867 46.9199C46.6019 46.4609 46.5099 45.97 46.5158 45.4753C46.5158 43.3624 48.1829 41.6846 50.2487 41.6846ZM8.8058 51.411H14.5958C17.7801 51.411 20.2744 53.841 20.2744 56.8474V59.9546H18.1272V56.6267C18.129 56.4835 18.102 56.3414 18.0478 56.2087C17.9937 56.0761 17.9135 55.9557 17.812 55.8546C17.7105 55.7535 17.5898 55.6738 17.457 55.6202C17.3241 55.5666 17.1819 55.5401 17.0387 55.5424C16.7552 55.5469 16.4852 55.6636 16.2876 55.8668C16.09 56.07 15.9809 56.3433 15.9844 56.6267V59.9524H7.41295V56.6267C7.41468 56.4835 7.38768 56.3414 7.33354 56.2087C7.27939 56.0761 7.1992 55.9557 7.09771 55.8546C6.99623 55.7535 6.8755 55.6738 6.74267 55.6202C6.60984 55.5666 6.4676 55.5401 6.32438 55.5424C6.04096 55.5469 5.77087 55.6636 5.57327 55.8668C5.37567 56.07 5.26665 56.3433 5.27009 56.6267V59.9524H3.12723V56.8474C3.12723 53.841 5.62152 51.411 8.8058 51.411ZM47.3729 51.411H53.1629C56.3472 51.411 58.8415 53.841 58.8415 56.8474V59.9546H56.6944V56.6267C56.6967 56.4831 56.6701 56.3405 56.6162 56.2074C56.5623 56.0743 56.4822 55.9534 56.3807 55.8518C56.2791 55.7503 56.1582 55.6702 56.0251 55.6163C55.892 55.5624 55.7494 55.5358 55.6058 55.5381C55.4651 55.5404 55.3262 55.5703 55.1971 55.6262C55.0679 55.6821 54.9511 55.763 54.8532 55.864C54.7553 55.9651 54.6782 56.0845 54.6265 56.2154C54.5747 56.3462 54.5492 56.486 54.5515 56.6267V59.9524H45.9801V56.6267C45.9824 56.4831 45.9558 56.3405 45.9019 56.2074C45.8481 56.0743 45.768 55.9534 45.6664 55.8518C45.5649 55.7503 45.4439 55.6702 45.3108 55.6163C45.1777 55.5624 45.0351 55.5358 44.8915 55.5381C44.7508 55.5404 44.6119 55.5703 44.4828 55.6262C44.3536 55.6821 44.2368 55.763 44.1389 55.864C44.041 55.9651 43.964 56.0845 43.9122 56.2154C43.8604 56.3462 43.835 56.486 43.8372 56.6267V59.9524H41.6944V56.8474C41.6944 53.841 44.1887 51.411 47.3729 51.411ZM23.3087 55.3967L22.9272 57.5139L24.2837 57.9017L24.3629 57.9231L26.4308 58.341L26.5165 58.3624L26.6558 58.3839L26.9172 56.2539L26.7779 56.2324L24.8279 55.8339L23.3087 55.3946V55.3967ZM38.6022 55.4246L36.1122 56.0567L35.1608 56.2024L35.4801 58.3239L36.4872 58.1696L36.5944 58.1481L39.1615 57.4924L39.2687 57.4624L38.6022 55.4246ZM33.1444 56.4617L30.9222 56.5689L28.9637 56.4874L28.8715 58.6303L30.8858 58.716H30.9801L33.2494 58.6003L33.1444 56.4617Z" fill="#00367D"/>
</svg>
