<svg width="58" height="61" viewBox="0 0 58 61" fill="none" xmlns="http://www.w3.org/2000/svg">
<path d="M41.7378 0.971459C41.682 0.977388 41.6267 0.988034 41.5727 1.00328L37.6067 2.06737C37.3517 2.13595 37.1343 2.30303 37.0025 2.53187C36.8706 2.7607 36.8351 3.03255 36.9036 3.28759C36.9722 3.54264 37.1393 3.76 37.3681 3.89186C37.597 4.02371 37.8688 4.05926 38.1239 3.99069L39.7449 3.55312C32.7676 15.0711 16.9614 29.0077 1.10348 32.1503C0.844479 32.2017 0.616514 32.3539 0.469738 32.5734C0.322962 32.793 0.269398 33.0618 0.32083 33.3208C0.372261 33.5798 0.524475 33.8078 0.743986 33.9545C0.963497 34.1013 1.23232 34.1549 1.49133 34.1034C18.2184 30.7879 34.2156 16.5847 41.4852 4.51776L41.9267 6.17655C41.9948 6.4316 42.1614 6.64917 42.3898 6.7814C42.503 6.84687 42.6279 6.88942 42.7574 6.90662C42.887 6.92382 43.0187 6.91533 43.145 6.88163C43.2713 6.84794 43.3897 6.7897 43.4935 6.71024C43.5972 6.63079 43.6843 6.53167 43.7498 6.41854C43.8153 6.30542 43.8578 6.18051 43.875 6.05094C43.8922 5.92137 43.8838 5.78969 43.8501 5.6634L42.7899 1.70538C42.7331 1.49581 42.6091 1.31062 42.4371 1.17809C42.2651 1.04557 42.0544 0.972995 41.8372 0.971459C41.8041 0.9698 41.7709 0.9698 41.7378 0.971459ZM38.5833 15.0572C38.3196 15.0572 38.0666 15.162 37.8801 15.3485C37.6936 15.535 37.5888 15.7879 37.5888 16.0517V34.191C38.2322 33.91 38.8974 33.6819 39.5778 33.5087V17.0462H43.5557V28.9799C44.0832 28.9799 44.5891 29.1894 44.9621 29.5624C45.3351 29.9354 45.5446 30.4413 45.5446 30.9688V16.0517C45.5446 15.7879 45.4399 15.535 45.2534 15.3485C45.0669 15.162 44.8139 15.0572 44.5502 15.0572H38.5833ZM26.6496 26.983V26.9909C26.3858 26.9909 26.1329 27.0957 25.9464 27.2822C25.7599 27.4687 25.6551 27.7217 25.6551 27.9854V44.8915C25.6548 44.6927 25.6843 44.4949 25.7426 44.3048C25.7828 44.1785 25.8354 44.0566 25.8998 43.9408C26.0705 43.6271 26.3226 43.3651 26.6295 43.1824C26.9364 42.9997 27.2869 42.9031 27.6441 42.9026V28.9879H31.622V39.398C32.1769 38.4592 32.8412 37.5941 33.6109 36.8343V27.9974C33.6109 27.7336 33.5062 27.4806 33.3197 27.2941C33.1332 27.1076 32.8802 27.0029 32.6165 27.0029L26.6496 26.983ZM41.5667 30.9688V34.9925C39.0218 35.2294 36.6397 36.3485 34.8327 38.1562C33.0257 39.9639 31.9075 42.3464 31.6717 44.8915H27.6441V46.8805H31.6717C31.9084 49.4248 33.027 51.8064 34.8339 53.6134C36.6408 55.4203 39.0224 56.5388 41.5667 56.7755V60.8031H43.5557V56.7755C46.0997 56.5384 48.4808 55.4196 50.2873 53.6128C52.0938 51.8059 53.2121 49.4245 53.4487 46.8805H57.4784V44.8915H53.4468C53.211 42.3468 52.0931 39.9644 50.2865 38.1568C48.48 36.3491 46.0983 35.2298 43.5537 34.9925V30.9688H41.5667ZM14.7159 35.1138C14.4521 35.1138 14.1992 35.2186 14.0127 35.4051C13.8262 35.5916 13.7214 35.8446 13.7214 36.1083V59.9757C13.7214 60.2395 13.8262 60.4924 14.0127 60.6789C14.1992 60.8654 14.4521 60.9702 14.7159 60.9702H20.6827C20.9465 60.9702 21.1994 60.8654 21.3859 60.6789C21.5724 60.4924 21.6772 60.2395 21.6772 59.9757V36.1083C21.6772 35.8446 21.5724 35.5916 21.3859 35.4051C21.1994 35.2186 20.9465 35.1138 20.6827 35.1138H14.7159ZM41.5667 37.0332V39.0261C40.0877 39.242 38.7178 39.9294 37.6607 40.9861C36.6036 42.0429 35.9157 43.4126 35.6993 44.8915H33.7104C33.9291 42.8827 34.827 41.0088 36.2557 39.5798C37.6843 38.1508 39.558 37.2524 41.5667 37.0332ZM43.5557 37.0332C45.5641 37.2528 47.4373 38.1514 48.8656 39.5804C50.2938 41.0093 51.1915 42.883 51.4101 44.8915H49.4211C49.2051 43.4122 48.5174 42.0421 47.4603 40.9849C46.4031 39.9278 45.033 39.2401 43.5537 39.0241L43.5557 37.0332ZM15.7104 37.1028H19.6883V58.9813H15.7104V37.1028ZM2.78216 39.0917C2.51841 39.0917 2.26546 39.1965 2.07896 39.383C1.89246 39.5695 1.78768 39.8225 1.78768 40.0862V59.9757C1.78768 60.2395 1.89246 60.4924 2.07896 60.6789C2.26546 60.8654 2.51841 60.9702 2.78216 60.9702H8.74902C9.01277 60.9702 9.26572 60.8654 9.45222 60.6789C9.63872 60.4924 9.74349 60.2395 9.74349 59.9757V40.0862C9.74349 39.8225 9.63872 39.5695 9.45222 39.383C9.26572 39.1965 9.01277 39.0917 8.74902 39.0917H2.78216ZM41.5548 41.0111H41.5667V43.0855C41.1518 43.2355 40.775 43.475 40.4632 43.7872C40.1514 44.0993 39.9122 44.4764 39.7628 44.8915H37.6883C37.8796 43.9361 38.3484 43.0583 39.0362 42.368C39.724 41.6778 40.6001 41.2058 41.5548 41.0111ZM43.5557 41.0111C44.5123 41.204 45.3905 41.6753 46.0802 42.3656C46.7699 43.056 47.2402 43.9348 47.4322 44.8915H45.3577C45.2084 44.4766 44.9696 44.0997 44.6581 43.7875C44.3467 43.4754 43.9703 43.2357 43.5557 43.0855V41.0111ZM3.77664 41.0807H7.75454V58.9813H3.77664V41.0807ZM25.6551 46.8805V59.8007C25.6551 60.0645 25.7599 60.3174 25.9464 60.5039C26.1329 60.6904 26.3858 60.7952 26.6496 60.7952L32.6165 60.7753C32.8802 60.7753 33.1332 60.6705 33.3197 60.484C33.5062 60.2975 33.6109 60.0446 33.6109 59.7808V54.9238C32.8404 54.1576 32.1719 53.2952 31.622 52.3581V58.7923H27.6441V48.8635C27.1179 48.8635 26.6132 48.655 26.2405 48.2837C25.8677 47.9124 25.6572 47.4066 25.6551 46.8805ZM33.7104 46.8805H35.6993C35.9159 48.3596 36.6038 49.7293 37.6609 50.7864C38.7179 51.8434 40.0877 52.5313 41.5667 52.7479V54.7368C39.5583 54.5177 37.6848 53.6196 36.2562 52.191C34.8276 50.7624 33.9295 48.8889 33.7104 46.8805ZM37.6883 46.8805H39.7628C40.0651 47.7178 40.7274 48.3821 41.5667 48.6825V50.7569C40.6103 50.5646 39.732 50.0941 39.042 49.4045C38.352 48.7148 37.8811 47.8368 37.6883 46.8805ZM45.3577 46.8805H47.4322C47.2397 47.8371 46.7689 48.7156 46.0789 49.4057C45.3889 50.0957 44.5104 50.5665 43.5537 50.7589V48.6825C43.9682 48.5328 44.3447 48.2938 44.6564 47.9824C44.9682 47.671 45.2076 47.2948 45.3577 46.8805ZM49.4211 46.8805H51.4101C51.191 48.8889 50.2928 50.7624 48.8642 52.191C47.4356 53.6196 45.5621 54.5177 43.5537 54.7368V52.7479C45.0328 52.5313 46.4026 51.8434 47.4596 50.7864C48.5166 49.7293 49.2045 48.3596 49.4211 46.8805ZM37.5868 57.5751V59.8007C37.5868 60.0645 37.6916 60.3174 37.8781 60.5039C38.0646 60.6904 38.3176 60.7952 38.5813 60.7952H39.5758V58.2553C38.8955 58.0827 38.2303 57.8552 37.5868 57.5751Z" fill="#00367D"/>
</svg>
