<svg width="62" height="59" viewBox="0 0 62 59" fill="none" xmlns="http://www.w3.org/2000/svg">
<path d="M31.9934 0.595947C31.6506 0.595947 31.3217 0.732155 31.0793 0.974607C30.8368 1.21706 30.7006 1.54589 30.7006 1.88877V3.21263C30.3285 3.34143 29.9642 3.49165 29.6095 3.66253L28.676 2.73169C28.4336 2.48933 28.1048 2.35317 27.762 2.35317C27.4192 2.35317 27.0904 2.48933 26.848 2.73169L24.1072 5.47248C23.9868 5.59258 23.8913 5.73524 23.8261 5.89231C23.7609 6.04937 23.7274 6.21775 23.7274 6.3878C23.7274 6.55785 23.7609 6.72623 23.8261 6.8833C23.8913 7.04037 23.9868 7.18303 24.1072 7.30312L25.038 8.23654C24.8677 8.58943 24.7184 8.95205 24.5907 9.32252H23.2669C22.924 9.32252 22.5952 9.45872 22.3527 9.70117C22.1103 9.94363 21.974 10.2725 21.974 10.6153V14.4938C21.974 14.8367 22.1103 15.1655 22.3527 15.408C22.5952 15.6504 22.924 15.7866 23.2669 15.7866H24.5907C24.72 16.1616 24.8674 16.521 25.0406 16.8778L24.1046 17.8112C23.8623 18.0536 23.7261 18.3824 23.7261 18.7252C23.7261 19.068 23.8623 19.3968 24.1046 19.6393L26.8454 22.38C26.9655 22.5004 27.1082 22.596 27.2652 22.6611C27.4223 22.7263 27.5907 22.7599 27.7607 22.7599C27.9308 22.7599 28.0992 22.7263 28.2562 22.6611C28.4133 22.596 28.556 22.5004 28.676 22.38L29.6095 21.4492C29.9663 21.6199 30.3257 21.7724 30.7006 21.9017V23.2204C30.7006 23.5633 30.8368 23.8921 31.0793 24.1345C31.3217 24.377 31.6506 24.5132 31.9934 24.5132H35.8719C36.2148 24.5132 36.5436 24.377 36.7861 24.1345C37.0285 23.8921 37.1647 23.5633 37.1647 23.2204V21.8965C37.5371 21.7672 37.9016 21.625 38.2559 21.4518L39.1893 22.3826C39.4317 22.625 39.7605 22.7612 40.1033 22.7612C40.4461 22.7612 40.7749 22.625 41.0174 22.3826L43.7581 19.6418C43.8785 19.5218 43.9741 19.3791 44.0392 19.222C44.1044 19.065 44.138 18.8966 44.138 18.7265C44.138 18.5565 44.1044 18.3881 44.0392 18.231C43.9741 18.074 43.8785 17.9313 43.7581 17.8112L42.8273 16.8778C42.998 16.521 43.1505 16.1616 43.2798 15.7866H44.5985C44.9414 15.7866 45.2702 15.6504 45.5126 15.408C45.7551 15.1655 45.8913 14.8367 45.8913 14.4938V10.6153C45.8913 10.2725 45.7551 9.94363 45.5126 9.70117C45.2702 9.45872 44.9414 9.32252 44.5985 9.32252H43.2746C43.1481 8.95033 42.9996 8.58598 42.8299 8.23137L43.7607 7.30054C44.0023 7.0582 44.138 6.72998 44.138 6.3878C44.138 6.04562 44.0023 5.7174 43.7607 5.47507L41.0199 2.73428C40.8998 2.61388 40.7572 2.51836 40.6001 2.45319C40.4431 2.38801 40.2747 2.35446 40.1046 2.35446C39.9346 2.35446 39.7662 2.38801 39.6091 2.45319C39.4521 2.51836 39.3094 2.61388 39.1893 2.73428L38.2559 3.66511C37.9015 3.49263 37.5372 3.34153 37.1647 3.21263V1.88877C37.1647 1.54589 37.0285 1.21706 36.7861 0.974607C36.5436 0.732155 36.2148 0.595947 35.8719 0.595947H31.9934ZM33.2863 3.1816H34.5791V4.05555C34.5788 4.34876 34.6782 4.63335 34.861 4.86263C35.0437 5.09191 35.299 5.25225 35.5849 5.31734C36.3994 5.50351 37.1802 5.8293 37.8861 6.27403C38.1346 6.42975 38.4285 6.4964 38.7198 6.46304C39.0111 6.42968 39.2824 6.2983 39.4892 6.09045L40.1046 5.47507L41.0174 6.3878L40.4071 7.0006C40.2008 7.20657 40.07 7.47625 40.0363 7.76586C40.0025 8.05547 40.0676 8.348 40.221 8.59595C40.6605 9.30441 40.9863 10.0879 41.1699 10.9023C41.2348 11.1874 41.3944 11.442 41.6226 11.6247C41.8508 11.8073 42.1342 11.9073 42.4265 11.9082H43.3057V13.201H42.4317C42.1381 13.2008 41.8533 13.3006 41.6239 13.4839C41.3946 13.6672 41.2345 13.923 41.1699 14.2094C40.9855 15.0245 40.6647 15.8025 40.221 16.5106C40.0662 16.7583 39.9999 17.051 40.0328 17.3412C40.0656 17.6313 40.1958 17.9018 40.402 18.1086L41.0174 18.7265L40.1046 19.6393L39.4918 19.029C39.2849 18.8222 39.0139 18.6917 38.7232 18.6588C38.4325 18.626 38.1392 18.6927 37.8913 18.848C37.1827 19.2896 36.4047 19.6087 35.5901 19.7918C35.3032 19.8559 35.0468 20.0158 34.863 20.2452C34.6792 20.4745 34.5791 20.7597 34.5791 21.0536V21.9276H33.2863V21.0536C33.2854 20.7613 33.1854 20.4779 33.0028 20.2497C32.8201 20.0215 32.5655 19.8619 32.2804 19.797C31.4652 19.6092 30.6873 19.2858 29.9792 18.8403C29.7308 18.6846 29.4368 18.6179 29.1455 18.6513C28.8542 18.6846 28.5829 18.816 28.3761 19.0239L27.7607 19.6393L26.848 18.7265L27.4634 18.1137C27.6702 17.9068 27.8007 17.6358 27.8336 17.3451C27.8665 17.0544 27.7998 16.7611 27.6444 16.5132C27.2027 15.8046 26.8836 15.0267 26.7006 14.212C26.6365 13.9251 26.4766 13.6687 26.2473 13.4849C26.0179 13.3011 25.7327 13.201 25.4388 13.201H24.5597V11.9082H25.4336C25.7269 11.9084 26.0114 11.809 26.2407 11.6263C26.47 11.4435 26.6304 11.1882 26.6954 10.9023C26.8816 10.0879 27.2022 9.31217 27.6444 8.60629C27.8004 8.35814 27.8675 8.06433 27.8346 7.77304C27.8017 7.48176 27.6708 7.2103 27.4634 7.00319L26.848 6.3878L27.7607 5.47507L28.3787 6.08528C28.5853 6.29086 28.8553 6.4206 29.1449 6.45345C29.4345 6.48631 29.7267 6.42035 29.974 6.26628C30.6825 5.82672 31.4608 5.5061 32.2753 5.32252C32.5621 5.25844 32.8186 5.09854 33.0024 4.86916C33.1861 4.63979 33.2863 4.35464 33.2863 4.06072V3.1816ZM33.9327 8.30118C31.5978 8.30118 29.6767 10.2197 29.6767 12.5546C29.6767 14.8894 31.5978 16.8106 33.9327 16.8106C36.2675 16.8106 38.1887 14.8894 38.1887 12.5546C38.1887 10.2197 36.2675 8.30118 33.9327 8.30118ZM33.9327 10.8868C34.3753 10.8868 34.7999 11.0627 35.1129 11.3757C35.4259 11.6887 35.6017 12.1132 35.6017 12.5559C35.6017 12.9985 35.4259 13.4231 35.1129 13.7361C34.7999 14.0491 34.3753 14.2249 33.9327 14.2249C33.49 14.2249 33.0655 14.0491 32.7525 13.7361C32.4395 13.4231 32.2636 12.9985 32.2636 12.5559C32.2636 12.1132 32.4395 11.6887 32.7525 11.3757C33.0655 11.0627 33.49 10.8868 33.9327 10.8868ZM10.7782 17.4932C10.4353 17.4932 10.1065 17.6294 9.86402 17.8718C9.62156 18.1143 9.48536 18.4431 9.48536 18.786V20.1098C9.11298 20.2359 8.7486 20.3844 8.39421 20.5546L7.46338 19.6237C7.22104 19.3822 6.89282 19.2465 6.55064 19.2465C6.20847 19.2465 5.88024 19.3822 5.63791 19.6237L2.89712 22.3645C2.77673 22.4846 2.6812 22.6273 2.61603 22.7844C2.55085 22.9414 2.51731 23.1098 2.51731 23.2799C2.51731 23.4499 2.55085 23.6183 2.61603 23.7754C2.6812 23.9324 2.77673 24.0751 2.89712 24.1952L3.82795 25.1286C3.65563 25.483 3.50454 25.8474 3.37547 26.2197H2.05161C1.70874 26.2197 1.3799 26.3559 1.13745 26.5984C0.894997 26.8408 0.758789 27.1697 0.758789 27.5126V31.391C0.758789 31.7339 0.894997 32.0627 1.13745 32.3052C1.3799 32.5477 1.70874 32.6839 2.05161 32.6839H3.37547C3.50475 33.0562 3.65213 33.4208 3.82278 33.775L2.89454 34.7058C2.77414 34.8259 2.67862 34.9686 2.61344 35.1257C2.54827 35.2827 2.51472 35.4511 2.51472 35.6212C2.51472 35.7912 2.54827 35.9596 2.61344 36.1167C2.67862 36.2737 2.77414 36.4164 2.89454 36.5365L5.63532 39.2773C5.75542 39.3977 5.89808 39.4932 6.05515 39.5584C6.21221 39.6235 6.38059 39.6571 6.55064 39.6571C6.7207 39.6571 6.88908 39.6235 7.04614 39.5584C7.20321 39.4932 7.34587 39.3977 7.46596 39.2773L8.39938 38.3464C8.75362 38.5171 9.11302 38.6671 9.48536 38.7938V40.1176C9.48536 40.4605 9.62156 40.7893 9.86402 41.0318C10.1065 41.2742 10.4353 41.4104 10.7782 41.4104H14.6567C14.9995 41.4104 15.3284 41.2742 15.5708 41.0318C15.8133 40.7893 15.9495 40.4605 15.9495 40.1176V38.7938C16.3215 38.6658 16.6858 38.5164 17.0406 38.3464L17.974 39.2773C18.2165 39.5196 18.5453 39.6558 18.8881 39.6558C19.2309 39.6558 19.5597 39.5196 19.8021 39.2773L22.5429 36.5365C22.6637 36.4163 22.7595 36.2735 22.8249 36.1162C22.8903 35.9589 22.924 35.7902 22.924 35.6199C22.924 35.4495 22.8903 35.2808 22.8249 35.1235C22.7595 34.9662 22.6637 34.8234 22.5429 34.7033L21.6146 33.775C21.7879 33.4208 21.9353 33.0562 22.0645 32.6839H23.3832C23.7261 32.6839 24.0549 32.5477 24.2974 32.3052C24.5398 32.0627 24.676 31.7339 24.676 31.391V27.5126C24.676 27.1697 24.5398 26.8408 24.2974 26.5984C24.0549 26.3559 23.7261 26.2197 23.3832 26.2197H22.0594C21.9311 25.8475 21.7809 25.4831 21.6095 25.1286L22.5455 24.1952C22.7878 23.9527 22.924 23.624 22.924 23.2811C22.924 22.9383 22.7878 22.6096 22.5455 22.3671L19.8047 19.6263C19.6846 19.5059 19.5419 19.4104 19.3849 19.3452C19.2278 19.2801 19.0594 19.2465 18.8894 19.2465C18.7193 19.2465 18.5509 19.2801 18.3939 19.3452C18.2368 19.4104 18.0941 19.5059 17.974 19.6263L17.0406 20.5572C16.6863 20.3847 16.3219 20.2336 15.9495 20.1047V18.786C15.9495 18.4431 15.8133 18.1143 15.5708 17.8718C15.3284 17.6294 14.9995 17.4932 14.6567 17.4932H10.7782ZM12.071 20.0788H13.3638V20.9528C13.3647 21.2451 13.4647 21.5285 13.6473 21.7567C13.83 21.9849 14.0846 22.1445 14.3696 22.2094C15.1841 22.3956 15.9624 22.7214 16.6709 23.1661C16.919 23.3221 17.2128 23.3892 17.5041 23.3563C17.7954 23.3234 18.0669 23.1925 18.274 22.9851L18.8894 22.3645L19.8021 23.2799L19.1919 23.8927C18.9851 24.0996 18.8546 24.3706 18.8217 24.6613C18.7888 24.952 18.8555 25.2453 19.0109 25.4932C19.4505 26.2016 19.7711 26.9799 19.9547 27.7944C20.0187 28.0812 20.1786 28.3377 20.408 28.5215C20.6374 28.7053 20.9225 28.8054 21.2164 28.8054H22.0904V30.0982H21.2164C20.9241 30.0991 20.6407 30.199 20.4125 30.3817C20.1843 30.5644 20.0247 30.819 19.9598 31.104C19.7726 31.9186 19.4491 32.6958 19.0031 33.4027C18.8471 33.6508 18.78 33.9446 18.8129 34.2359C18.8458 34.5272 18.9767 34.7987 19.1841 35.0058L19.8047 35.6186L18.8894 36.5313L18.2766 35.9211C18.0696 35.7143 17.7987 35.5838 17.5079 35.5509C17.2172 35.518 16.9239 35.5847 16.676 35.7401C15.9674 36.1817 15.1895 36.5007 14.3748 36.6839C14.088 36.7479 13.8315 36.9078 13.6477 37.1372C13.464 37.3666 13.3638 37.6517 13.3638 37.9457V38.8248H12.071V37.9508C12.0713 37.6576 11.9719 37.373 11.7891 37.1437C11.6064 36.9145 11.3511 36.7541 11.0652 36.689C10.2519 36.504 9.47572 36.1832 8.76913 35.7401C8.52154 35.5834 8.22807 35.5155 7.9368 35.5474C7.64554 35.5793 7.37377 35.7093 7.16603 35.9159L6.55064 36.5313L5.63791 35.6134L6.24812 35.0032C6.45432 34.7964 6.58444 34.5259 6.61731 34.2358C6.65018 33.9456 6.58384 33.6529 6.42912 33.4053C5.98739 32.6967 5.66833 31.9187 5.48536 31.104C5.42077 30.8177 5.26065 30.5618 5.03132 30.3785C4.802 30.1952 4.51712 30.0955 4.22356 30.0956H3.34444V28.8028H4.21839C4.51195 28.8029 4.79682 28.7032 5.02615 28.5199C5.25548 28.3366 5.4156 28.0808 5.48018 27.7944C5.66635 26.9799 5.98439 26.2016 6.42912 25.4932C6.58581 25.2456 6.65376 24.9521 6.62181 24.6608C6.58987 24.3696 6.45993 24.0978 6.25329 23.8901L5.63791 23.2747L6.55064 22.3619L7.16086 22.9722C7.36762 23.1784 7.6381 23.3085 7.92826 23.3413C8.21841 23.3742 8.51114 23.3079 8.75879 23.1532C9.46726 22.7136 10.2455 22.393 11.06 22.2094C11.3464 22.1448 11.6023 21.9847 11.7855 21.7554C11.9688 21.526 12.0686 21.2412 12.0684 20.9476V20.0788H12.071ZM41.1285 24.5132C40.7857 24.5132 40.4568 24.6494 40.2144 24.8919C39.9719 25.1343 39.8357 25.4632 39.8357 25.806V28.1202C39.0342 28.3684 38.2636 28.6813 37.519 29.0691L35.89 27.4479C35.6477 27.2063 35.3195 27.0707 34.9773 27.0707C34.6351 27.0707 34.3069 27.2063 34.0645 27.4479L30.0749 31.4298C29.9545 31.5499 29.859 31.6926 29.7938 31.8496C29.7286 32.0067 29.6951 32.1751 29.6951 32.3451C29.6951 32.5152 29.7286 32.6836 29.7938 32.8406C29.859 32.9977 29.9545 33.1404 30.0749 33.2605L31.7038 34.8894C31.316 35.6367 30.9902 36.4072 30.742 37.2087H28.4382C28.0953 37.2087 27.7665 37.345 27.524 37.5874C27.2816 37.8299 27.1453 38.1587 27.1453 38.5016V44.1435C27.1453 44.4863 27.2816 44.8152 27.524 45.0576C27.7665 45.3001 28.0953 45.4363 28.4382 45.4363H30.7472C30.9954 46.2378 31.3134 47.0135 31.7013 47.7582L30.0723 49.3872C29.8307 49.6295 29.6951 49.9577 29.6951 50.2999C29.6951 50.6421 29.8307 50.9703 30.0723 51.2126L34.0645 55.1971C34.307 55.4395 34.6358 55.5756 34.9786 55.5756C35.3214 55.5756 35.6502 55.4395 35.8926 55.1971L37.5216 53.5707C38.2662 53.9586 39.0368 54.2766 39.8357 54.5274V56.8338C39.8357 57.1767 39.9719 57.5055 40.2144 57.748C40.4568 57.9904 40.7857 58.1267 41.1285 58.1267H46.7756C47.1185 58.1267 47.4473 57.9904 47.6898 57.748C47.9322 57.5055 48.0684 57.1767 48.0684 56.8338V54.5248C48.87 54.2766 49.6405 53.9638 50.3852 53.5759L52.0141 55.1971C52.2565 55.4387 52.5847 55.5743 52.9269 55.5743C53.269 55.5743 53.5973 55.4387 53.8396 55.1971L57.8293 51.2152C57.9496 51.0951 58.0452 50.9525 58.1103 50.7954C58.1755 50.6383 58.2091 50.4699 58.2091 50.2999C58.2091 50.1298 58.1755 49.9615 58.1103 49.8044C58.0452 49.6473 57.9496 49.5047 57.8293 49.3846L56.2003 47.7556C56.5881 47.0084 56.9139 46.2378 57.1622 45.4363H59.466C59.8088 45.4363 60.1377 45.3001 60.3801 45.0576C60.6226 44.8152 60.7588 44.4863 60.7588 44.1435V38.5016C60.7588 38.1587 60.6226 37.8299 60.3801 37.5874C60.1377 37.345 59.8088 37.2087 59.466 37.2087H57.157C56.9095 36.4076 56.5902 35.6305 56.2029 34.8868L57.8318 33.2579C58.0734 33.0155 58.2091 32.6873 58.2091 32.3451C58.2091 32.003 58.0734 31.6747 57.8318 31.4324L53.8396 27.4479C53.5971 27.2056 53.2684 27.0694 52.9256 27.0694C52.5828 27.0694 52.254 27.2056 52.0115 27.4479L50.3826 29.0743C49.6416 28.6864 48.867 28.3662 48.0684 28.1176V25.806C48.0684 25.4632 47.9322 25.1343 47.6898 24.8919C47.4473 24.6494 47.1185 24.5132 46.7756 24.5132H41.1285ZM12.7174 25.1958C10.3826 25.1958 8.46403 27.117 8.46403 29.4518C8.46403 31.7866 10.3826 33.7104 12.7174 33.7104C15.0523 33.7104 16.9734 31.7866 16.9734 29.4518C16.9734 27.117 15.0523 25.1958 12.7174 25.1958ZM42.4214 27.0989H45.4828V28.9579C45.4824 29.2508 45.5814 29.5351 45.7636 29.7643C45.9459 29.9936 46.2006 30.1541 46.486 30.2197C47.7375 30.5042 48.9269 30.998 50.0128 31.678C50.2607 31.8334 50.554 31.9001 50.8447 31.8673C51.1354 31.8344 51.4064 31.7039 51.6133 31.497L52.9269 30.1887L55.0885 32.3451L53.7801 33.6535C53.5727 33.8606 53.4418 34.132 53.4089 34.4233C53.376 34.7146 53.4431 35.0084 53.5991 35.2566C54.2766 36.3426 54.7653 37.532 55.0471 38.786C55.1117 39.0724 55.2718 39.3282 55.5011 39.5115C55.7305 39.6948 56.0153 39.7945 56.3089 39.7944H58.1731V42.8506H56.3141C56.0212 42.8502 55.7369 42.9493 55.5077 43.1315C55.2784 43.3138 55.1179 43.5685 55.0523 43.8539C54.7678 45.1053 54.2766 46.2999 53.594 47.3859C53.4386 47.6338 53.3719 47.927 53.4047 48.2178C53.4376 48.5085 53.5681 48.7794 53.775 48.9864L55.0885 50.2999L52.9269 52.4563L51.6185 51.1532C51.4119 50.9476 51.1419 50.8178 50.8523 50.785C50.5628 50.7521 50.2706 50.8181 50.0232 50.9722C48.9346 51.6496 47.7375 52.1383 46.486 52.4201C46.2015 52.4855 45.9474 52.6453 45.7653 52.8735C45.5831 53.1017 45.4835 53.3848 45.4828 53.6768V55.541H42.4214V53.6819C42.4206 53.39 42.321 53.1068 42.1389 52.8787C41.9567 52.6505 41.7027 52.4907 41.4181 52.4253C40.1687 52.1403 38.9763 51.6464 37.8913 50.9644C37.6434 50.809 37.3501 50.7423 37.0594 50.7752C36.7687 50.8081 36.4977 50.9386 36.2908 51.1454L34.9773 52.4563L32.8157 50.2999L34.124 48.9916C34.3315 48.7844 34.4624 48.513 34.4952 48.2217C34.5281 47.9304 34.461 47.6366 34.305 47.3885C33.6273 46.3018 33.1377 45.1086 32.857 43.859C32.7925 43.5727 32.6323 43.3168 32.403 43.1335C32.1737 42.9503 31.8888 42.8505 31.5952 42.8506H29.731V39.7944H31.5901C31.8833 39.7947 32.1679 39.6953 32.3972 39.5125C32.6264 39.3298 32.7868 39.0745 32.8519 38.7886C33.1363 37.5397 33.6276 36.3451 34.3102 35.2592C34.4656 35.0113 34.5323 34.718 34.4994 34.4273C34.4665 34.1366 34.336 33.8656 34.1292 33.6587L32.8157 32.3451L34.9773 30.1887L36.2856 31.4919C36.4922 31.6974 36.7622 31.8272 37.0518 31.86C37.3414 31.8929 37.6336 31.8269 37.881 31.6729C38.9695 30.9954 40.1667 30.5016 41.4181 30.2197C41.7018 30.1545 41.9552 29.9955 42.1373 29.7684C42.3193 29.5413 42.4194 29.2594 42.4214 28.9683V27.0989ZM12.7174 27.7815C13.1494 27.7985 13.558 27.982 13.8576 28.2936C14.1572 28.6053 14.3246 29.0208 14.3246 29.4531C14.3246 29.8854 14.1572 30.3009 13.8576 30.6125C13.558 30.9242 13.1494 31.1077 12.7174 31.1247C12.2741 31.1247 11.8489 30.9486 11.5354 30.6351C11.2219 30.3216 11.0458 29.8964 11.0458 29.4531C11.0458 29.0097 11.2219 28.5846 11.5354 28.2711C11.8489 27.9576 12.2741 27.7815 12.7174 27.7815ZM43.9521 34.8558C42.24 34.8633 40.6002 35.5467 39.3895 36.7574C38.1789 37.968 37.4954 39.6078 37.4879 41.3199C37.4948 43.0322 38.178 44.6725 39.3888 45.8832C40.5995 47.094 42.2398 47.7772 43.9521 47.7841C45.6644 47.7772 47.3046 47.094 48.5154 45.8832C49.7262 44.6725 50.4094 43.0322 50.4162 41.3199C50.4162 37.7724 47.4996 34.8558 43.9521 34.8558ZM43.9521 37.4415C46.0878 37.4415 47.8305 39.1842 47.8305 41.3199C47.8305 43.4557 46.0878 45.1984 43.9521 45.1984C41.8163 45.1984 40.0736 43.4557 40.0736 41.3199C40.0736 39.1842 41.8163 37.4415 43.9521 37.4415Z" fill="#00367D"/>
</svg>
