<svg width="61" height="61" viewBox="0 0 61 61" fill="none" xmlns="http://www.w3.org/2000/svg">
<path fill-rule="evenodd" clip-rule="evenodd" d="M29.6465 0.970215V9.02022C18.3065 9.53421 9.20848 18.6322 8.69648 29.9702H0.646484V31.9702H8.69648C9.21048 43.3082 18.3085 52.4062 29.6465 52.9202V60.9702H31.6465V52.9202C42.9845 52.4062 52.0825 43.3082 52.5965 31.9702H60.6465V29.9702H52.5965C52.0845 18.6302 42.9845 9.53421 31.6465 9.02022V0.970215H29.6465ZM27.7205 5.15021L26.7325 5.29821L25.4585 5.49021L25.3585 5.51221L24.6745 5.68821L23.7045 5.93422L24.2005 7.87422L25.1705 7.62621L25.7605 7.47021H25.7805L27.0365 7.27821L28.0245 7.12621L27.7205 5.15021ZM33.4945 5.15021L33.1885 7.12621L34.1785 7.27821L35.4365 7.47021H35.4565L36.0445 7.62621L37.0145 7.87222L37.5105 5.93422L36.5405 5.68821L35.8565 5.51221L35.7565 5.49021L34.4825 5.29821L33.4945 5.15021ZM21.7085 6.58021L20.7705 6.92421L20.5705 6.99821L20.4825 7.03821L18.8685 7.81021L17.9705 8.24821L18.8385 10.0482L19.7365 9.61421L21.2985 8.86022L21.4585 8.80221L22.3965 8.45821L21.7085 6.57821V6.58021ZM39.5065 6.58021L38.8185 8.46021L39.7565 8.80221L39.9165 8.86222L41.4785 9.61421L42.3785 10.0482L43.2445 8.24821L42.3445 7.80822L40.7325 7.03621L40.6425 6.99621L40.4425 6.92421L39.5065 6.58021ZM16.1065 9.40821L15.3065 10.0082L14.1465 10.8802L14.0725 10.9342L13.6665 11.3062L12.9265 11.9782L14.2725 13.4582L15.0105 12.7862L15.3725 12.4542L16.5065 11.6062L17.3065 11.0102L16.1065 9.40821ZM45.1065 9.40821L43.9065 11.0082L44.7085 11.6082L45.8425 12.4542L46.2045 12.7862L46.9445 13.4582L48.2865 11.9782L47.5485 11.3062L47.1425 10.9342L47.0685 10.8802L45.9085 10.0102L45.1085 9.40821H45.1065ZM29.6465 11.0202V17.1262H31.6465V11.0202C36.594 11.2626 41.2745 13.3369 44.7772 16.8395C48.2798 20.3422 50.3541 25.0227 50.5965 29.9702H44.4945V31.9702H50.5945C50.3526 36.9176 48.2787 41.598 44.7764 45.1007C41.2741 48.6034 36.5938 50.6778 31.6465 50.9202V44.8182H29.6465V50.9182C24.6991 50.6763 20.0187 48.6024 16.516 45.1001C13.0133 41.5978 10.9389 36.9176 10.6965 31.9702H16.7985V29.9702H10.6985C10.9408 25.023 13.0148 20.3428 16.5171 16.8402C20.0193 13.3376 24.6993 11.2631 29.6465 11.0202ZM11.4545 13.4662L10.7825 14.2122L10.6145 14.3962L10.5545 14.4702L9.50648 15.8722L8.90648 16.6722L10.5105 17.8722L11.1065 17.0722L12.0965 15.7442L12.1165 15.7202L12.2645 15.5522L12.9365 14.8122L11.4565 13.4662H11.4545ZM49.7605 13.4662L48.2805 14.8142L48.9505 15.5522L49.1005 15.7202L49.1205 15.7442L50.1065 17.0722L50.7065 17.8722L52.3065 16.6722L51.7085 15.8722L50.6625 14.4702L50.6005 14.3962L50.4325 14.2122L49.7605 13.4662ZM7.79048 18.5642L7.35648 19.4642L6.70848 20.8062L6.67448 20.8962L6.49848 21.3762L6.15448 22.3142L8.03448 23.0022L8.37648 22.0622L8.52448 21.6502L9.15848 20.3342L9.59248 19.4302L7.79048 18.5642ZM53.4245 18.5642L51.6245 19.4302L52.0565 20.3342L52.6885 21.6502L52.8385 22.0642L53.1825 23.0022L55.0605 22.3142L54.7165 21.3762L54.5405 20.8962L54.5065 20.8062L53.8565 19.4622L53.4245 18.5622V18.5642ZM30.6465 18.9702C24.0305 18.9702 18.6465 24.3542 18.6465 30.9702C18.6465 37.5862 24.0305 42.9702 30.6465 42.9702C37.2625 42.9702 42.6465 37.5862 42.6465 30.9702C42.6465 24.3542 37.2625 18.9702 30.6465 18.9702ZM30.6465 20.9702C36.1805 20.9702 40.6465 25.4362 40.6465 30.9702C40.6465 36.5042 36.1805 40.9702 30.6465 40.9702C25.1125 40.9702 20.6465 36.5042 20.6465 30.9702C20.6465 25.4362 25.1125 20.9702 30.6465 20.9702ZM30.6305 22.9702V22.9742C30.3948 22.9784 30.1704 23.0757 30.0065 23.2449C29.8426 23.414 29.7527 23.641 29.7565 23.8762V24.6562C28.0125 25.0242 26.6465 26.4302 26.6465 28.2042C26.6465 30.2702 28.4985 31.8562 30.6465 31.8562C31.9465 31.8562 32.8665 32.7382 32.8665 33.7322C32.8665 34.7262 31.9465 35.6022 30.6465 35.6022C29.3465 35.6022 28.4265 34.7262 28.4265 33.7322C28.4465 32.5302 26.6285 32.5302 26.6465 33.7322C26.6465 35.5522 28.0405 36.8982 29.7565 37.2822V38.0682C29.7565 38.3037 29.8503 38.5296 30.0172 38.6961C30.1841 38.8627 30.4104 38.9562 30.6465 38.9562C30.8825 38.9562 31.1089 38.8627 31.2758 38.6961C31.4427 38.5296 31.5365 38.3037 31.5365 38.0682V37.2782C33.2805 36.9122 34.6465 35.5042 34.6465 33.7322C34.6465 31.6662 32.7945 30.0802 30.6465 30.0802C29.3465 30.0802 28.4265 29.1982 28.4265 28.2042C28.4265 27.2242 29.3265 26.3642 30.6005 26.3422C30.6325 26.3439 30.6645 26.3439 30.6965 26.3422C31.9665 26.3682 32.8645 27.2222 32.8645 28.2022C32.8465 29.4022 34.6645 29.4022 34.6465 28.2022C34.6465 26.3782 33.2525 25.0362 31.5365 24.6502V23.8722C31.5384 23.7531 31.5162 23.6348 31.4714 23.5243C31.4265 23.4139 31.3598 23.3136 31.2752 23.2295C31.1907 23.1453 31.09 23.079 30.9793 23.0344C30.8685 22.9899 30.7499 22.9681 30.6305 22.9702ZM5.53648 24.3182L5.28648 25.2862L5.18648 25.6862L5.16648 25.7822L4.92648 27.3522L4.77448 28.3422L6.75248 28.6462L6.90448 27.6582L7.13448 26.1382L7.22448 25.7862L7.47448 24.8182L5.53648 24.3182ZM55.6765 24.3182L53.7405 24.8182L53.9905 25.7862L54.0805 26.1382L54.3105 27.6582L54.4625 28.6462L56.4385 28.3422L56.2865 27.3522L56.0485 25.7822L56.0285 25.6842L55.9285 25.2862L55.6785 24.3182H55.6765ZM6.75448 33.8142L4.77648 34.1142L4.93048 35.0982L5.09048 36.1582L5.11048 36.2582L5.34048 37.1622L5.59048 38.1262L7.52648 37.6302L7.27648 36.6622L7.05848 35.8102L6.90648 34.8022L6.75448 33.8142ZM54.4645 33.8142L54.3125 34.8022L54.1605 35.8102L53.9405 36.6622L53.6905 37.6302L55.6305 38.1262L55.8785 37.1622L56.1085 36.2602L56.1285 36.1582L56.2885 35.0982L56.4405 34.1142L54.4645 33.8142ZM8.00648 39.3762L6.20048 40.2442L6.63448 41.1442L7.50648 42.9462L7.93848 43.8482L9.73848 42.9822L9.30648 42.0802L8.43848 40.2802L8.00648 39.3762ZM53.2085 39.3762L52.7745 40.2782L51.9085 42.0782L51.4745 42.9822L53.2745 43.8482L53.7085 42.9482L54.5805 41.1462L55.0145 40.2442L53.2085 39.3762ZM10.7405 44.4902L9.14048 45.6842L9.74048 46.4842L10.4745 47.4742L10.5365 47.5482L11.0525 48.1142L11.7285 48.8562L13.2085 47.5102L12.5325 46.7702L12.0365 46.2202L12.0165 46.2002L11.3425 45.2902L10.7405 44.4902ZM50.4745 44.4902L49.8745 45.2902L49.1965 46.2002L49.1765 46.2202L48.6825 46.7702L48.0065 47.5102L49.4865 48.8562L50.1625 48.1162L50.6785 47.5482L50.7385 47.4742L51.4745 46.4862L52.0745 45.6862L50.4745 44.4902ZM14.5745 48.8382L13.2325 50.3182L13.9725 50.9902L13.9925 51.0102L14.0685 51.0702L15.6465 52.2502L16.4465 52.8522L17.6425 51.2482L16.8425 50.6482L15.3185 49.5122L15.3065 49.4922L14.5745 48.8382ZM46.6385 48.8382L45.9085 49.4942L45.8965 49.5142L44.3725 50.6502L43.5725 51.2482L44.7685 52.8522L45.5685 52.2522L47.1465 51.0722L47.2205 51.0102L47.2445 50.9902L47.9825 50.3182L46.6385 48.8382ZM19.2285 52.1182L18.3565 53.9182L19.2605 54.3522L20.4045 54.9042L20.4945 54.9462L21.1785 55.1962L22.1185 55.5402L22.8065 53.6602L21.8665 53.3182L21.2165 53.0782L20.1265 52.5562L19.2285 52.1182ZM41.9865 52.1182L41.0865 52.5562L39.9985 53.0802L39.3505 53.3182L38.4085 53.6622L39.0965 55.5422L40.0365 55.1962L40.7205 54.9462L40.8105 54.9042L41.9545 54.3522L42.8565 53.9202L41.9865 52.1202V52.1182ZM24.6265 54.2002L24.1305 56.1382L25.1005 56.3842L25.2805 56.4302L25.3805 56.4502L27.1705 56.7242L28.1585 56.8762L28.4585 54.9002L27.4705 54.7482L25.7325 54.4822L25.5965 54.4462L24.6265 54.2002ZM36.5865 54.2002L35.6185 54.4462L35.4825 54.4822L33.7425 54.7482L32.7565 54.9002L33.0565 56.8762L34.0445 56.7242L35.8345 56.4502L35.9345 56.4302L36.1145 56.3842L37.0845 56.1382L36.5885 54.2002H36.5865Z" fill="#00367D"/>
</svg>
