<svg width="61" height="61" viewBox="0 0 61 61" fill="none" xmlns="http://www.w3.org/2000/svg">
<path fill-rule="evenodd" clip-rule="evenodd" d="M30.1133 0.970215C28.6939 0.974735 27.3339 1.5406 26.3302 2.54428C25.3265 3.54796 24.7607 4.90795 24.7561 6.32736C24.7614 7.56017 25.1899 8.75377 25.9701 9.70833C26.7503 10.6629 27.8347 11.3204 29.0419 11.5709V20.3609C26.9997 20.5645 25.0026 21.3016 23.329 22.6709L17.1597 16.4995C17.8354 15.4678 18.1359 14.2353 18.0111 13.0083C17.8863 11.7814 17.3436 10.6347 16.474 9.76021C15.4674 8.75956 14.1058 8.1979 12.6865 8.1979C11.2672 8.1979 9.90554 8.75956 8.899 9.76021C7.89834 10.7668 7.33668 12.1284 7.33668 13.5477C7.33668 14.967 7.89834 16.3287 8.899 17.3352C10.7204 19.1566 13.564 19.3795 15.6404 18.0124L21.814 24.1859C20.4426 25.8574 19.7076 27.8566 19.504 29.8988H10.7183C10.4684 28.6906 9.81039 27.6052 8.8548 26.8248C7.8992 26.0444 6.70419 25.6165 5.47042 25.6131C4.05101 25.6176 2.69103 26.1835 1.68735 27.1871C0.683665 28.1908 0.117802 29.5508 0.113281 30.9702C0.113281 33.9166 2.524 36.3274 5.47042 36.3274C6.70413 36.3228 7.89884 35.8946 8.85455 35.1144C9.81026 34.3343 10.469 33.2495 10.7204 32.0416H19.4997C19.7033 34.0859 20.4426 36.0852 21.814 37.7588L15.6447 43.9281C14.6128 43.2506 13.3792 42.9486 12.151 43.0727C10.9228 43.1967 9.77462 43.7393 8.899 44.6095C7.89834 45.616 7.33668 46.9777 7.33668 48.397C7.33668 49.8163 7.89834 51.1779 8.899 52.1845C9.90554 53.1852 11.2672 53.7468 12.6865 53.7468C14.1058 53.7468 15.4674 53.1852 16.474 52.1845C17.3431 51.3102 17.8854 50.1638 18.0102 48.9374C18.1351 47.711 17.8348 46.4789 17.1597 45.4474V45.4431L23.3247 39.2781C24.9983 40.6474 26.9997 41.3802 29.0419 41.5838V50.3652H29.0376C27.8305 50.6167 26.7465 51.2753 25.9671 52.2306C25.1877 53.186 24.7602 54.3801 24.7561 55.6131C24.7561 58.5595 27.1669 60.9702 30.1133 60.9702C33.0597 60.9702 35.4704 58.5595 35.4704 55.6131C35.4659 54.3794 35.0377 53.1847 34.2575 52.2289C33.4773 51.2732 32.3925 50.6145 31.1847 50.3631V41.5838C33.2269 41.3802 35.2261 40.6409 36.8976 39.2738L43.0669 45.4431V45.4474C42.3912 46.4784 42.0902 47.7102 42.2143 48.9366C42.3383 50.163 42.8799 51.3096 43.7483 52.1845C44.7548 53.1852 46.1165 53.7468 47.5358 53.7468C48.9551 53.7468 50.3167 53.1852 51.3233 52.1845C52.3239 51.1779 52.8856 49.8163 52.8856 48.397C52.8856 46.9777 52.3239 45.616 51.3233 44.6095C50.4475 43.7411 49.3002 43.1996 48.0732 43.0756C46.8461 42.9516 45.6137 43.2525 44.5819 43.9281L38.4126 37.7588C39.784 36.0852 40.519 34.0859 40.7226 32.0416H49.5083V32.0459C49.7598 33.253 50.4183 34.337 51.3737 35.1164C52.329 35.8958 53.5232 36.3233 54.7561 36.3274C57.7026 36.3274 60.1133 33.9166 60.1133 30.9702C60.1133 28.0238 57.7026 25.6131 54.7561 25.6131C53.522 25.616 52.3265 26.0437 51.3705 26.8241C50.4144 27.6045 49.7561 28.6902 49.5061 29.8988H40.7226C40.519 27.8566 39.7797 25.8574 38.4126 24.1859L44.5819 18.0166H44.5861C45.6172 18.6923 46.849 18.9933 48.0754 18.8692C49.3018 18.7452 50.4484 18.2036 51.3233 17.3352C52.3239 16.3287 52.8856 14.967 52.8856 13.5477C52.8856 12.1284 52.3239 10.7668 51.3233 9.76021C50.3167 8.75956 48.9551 8.1979 47.5358 8.1979C46.1165 8.1979 44.7548 8.75956 43.7483 9.76021C42.8799 10.636 42.3384 11.7833 42.2144 13.0103C42.0904 14.2374 42.3913 15.4698 43.0669 16.5016L36.8976 22.6709C35.2261 21.2995 33.2269 20.5645 31.1847 20.3609V11.5709H31.189C32.3957 11.3203 33.4796 10.6626 34.259 9.70796C35.0385 8.75332 35.4662 7.55979 35.4704 6.32736C35.4704 3.38093 33.0597 0.970215 30.1133 0.970215ZM30.1133 3.11307C31.9004 3.11307 33.3276 4.54021 33.3276 6.32736C33.3276 8.1145 31.9004 9.54164 30.1133 9.54164C28.3261 9.54164 26.899 8.1145 26.899 6.32736C26.899 4.54021 28.3261 3.11307 30.1133 3.11307ZM12.6854 10.3238C13.5061 10.3238 14.3269 10.6431 14.9569 11.2752C16.2211 12.5395 16.2211 14.5538 14.9569 15.8181C13.6926 17.0824 11.6783 17.0824 10.414 15.8181C10.1139 15.5208 9.87567 15.167 9.7131 14.7771C9.55052 14.3873 9.46682 13.9691 9.46682 13.5466C9.46682 13.1242 9.55052 12.706 9.7131 12.3161C9.87567 11.9263 10.1139 11.5725 10.414 11.2752C10.7112 10.9747 11.0649 10.736 11.4547 10.5727C11.8445 10.4094 12.2628 10.3248 12.6854 10.3238ZM47.5369 10.3238C48.3576 10.3238 49.1761 10.6431 49.8083 11.2752C51.0726 12.5395 51.0726 14.5538 49.8083 15.8181C48.544 17.0824 46.5297 17.0824 45.2654 15.8181C44.9653 15.5208 44.7271 15.167 44.5645 14.7771C44.4019 14.3873 44.3182 13.9691 44.3182 13.5466C44.3182 13.1242 44.4019 12.706 44.5645 12.3161C44.7271 11.9263 44.9653 11.5725 45.2654 11.2752C45.5626 10.9747 45.9163 10.736 46.3061 10.5727C46.696 10.4094 47.1142 10.3248 47.5369 10.3238ZM30.1133 22.3816C32.3054 22.3816 34.4976 23.2216 36.1776 24.9016C36.9762 25.6972 37.6098 26.6426 38.0422 27.6836C38.4746 28.7247 38.6972 29.8408 38.6972 30.9681C38.6972 32.0953 38.4746 33.2115 38.0422 34.2525C37.6098 35.2935 36.9762 36.2389 36.1776 37.0345C35.382 37.8331 34.4366 38.4668 33.3956 38.8992C32.3545 39.3315 31.2384 39.5541 30.1111 39.5541C28.9839 39.5541 27.8677 39.3315 26.8267 38.8992C25.7857 38.4668 24.8403 37.8331 24.0447 37.0345C23.2464 36.2387 22.613 35.293 22.181 34.2518C21.749 33.2107 21.5269 32.0944 21.5273 30.9672C21.5277 29.8399 21.7506 28.7239 22.1834 27.683C22.6161 26.6421 23.2501 25.6969 24.049 24.9016C24.8441 24.1029 25.7891 23.4692 26.8298 23.0367C27.8704 22.6042 28.9863 22.3816 30.1133 22.3816ZM5.47042 27.7559C7.25757 27.7559 8.68471 29.1831 8.68471 30.9702C8.68471 32.7574 7.25757 34.1845 5.47042 34.1845C3.68328 34.1845 2.25614 32.7574 2.25614 30.9702C2.25614 29.1831 3.68328 27.7559 5.47042 27.7559ZM54.7561 27.7559C56.5433 27.7559 57.9704 29.1831 57.9704 30.9702C57.9704 32.7574 56.5433 34.1845 54.7561 34.1845C52.969 34.1845 51.5419 32.7574 51.5419 30.9702C51.5419 29.1831 52.969 27.7559 54.7561 27.7559ZM12.6854 45.1752C13.5061 45.1752 14.3269 45.4924 14.9569 46.1245C16.2211 47.3888 16.2211 49.4052 14.9569 50.6695C13.6926 51.9338 11.6783 51.9338 10.414 50.6695C10.1139 50.3722 9.87567 50.0184 9.7131 49.6286C9.55052 49.2387 9.46682 48.8205 9.46682 48.3981C9.46682 47.9757 9.55052 47.5574 9.7131 47.1676C9.87567 46.7777 10.1139 46.4239 10.414 46.1266C10.7112 45.8262 11.0649 45.5874 11.4547 45.4241C11.8445 45.2608 12.2628 45.1762 12.6854 45.1752ZM47.5369 45.1752C48.3576 45.1752 49.1761 45.4924 49.8083 46.1245C51.0726 47.3888 51.0726 49.4052 49.8083 50.6695C48.544 51.9338 46.5297 51.9338 45.2654 50.6695C44.9653 50.3722 44.7271 50.0184 44.5645 49.6286C44.4019 49.2387 44.3182 48.8205 44.3182 48.3981C44.3182 47.9757 44.4019 47.5574 44.5645 47.1676C44.7271 46.7777 44.9653 46.4239 45.2654 46.1266C45.5626 45.8262 45.9163 45.5874 46.3061 45.4241C46.696 45.2608 47.1142 45.1762 47.5369 45.1752ZM30.1133 52.3988C31.9004 52.3988 33.3276 53.8259 33.3276 55.6131C33.3276 57.4002 31.9004 58.8274 30.1133 58.8274C28.3261 58.8274 26.899 57.4002 26.899 55.6131C26.899 53.8259 28.3261 52.3988 30.1133 52.3988Z" fill="#00367D"/>
</svg>
