<svg width="61" height="61" viewBox="0 0 61 61" fill="none" xmlns="http://www.w3.org/2000/svg">
<path d="M29.932 0.126709V8.17626C18.5926 8.69024 9.49512 17.7877 8.98315 29.1251H0.933594V31.125H8.98315C9.49712 42.4624 18.5946 51.5599 29.932 52.0738V60.1234H31.9319V52.0738C37.064 51.8448 41.9519 49.8172 45.7391 46.3462L51.4808 52.0878L50.8808 55.0997C50.8486 55.2608 50.8565 55.4274 50.9039 55.5847C50.9514 55.742 51.0369 55.8852 51.1528 56.0016L54.9806 59.8334C55.1085 59.9615 55.2688 60.0524 55.4443 60.0965C55.6198 60.1407 55.804 60.1363 55.9773 60.084C56.1506 60.0316 56.3064 59.9332 56.4281 59.7993C56.5498 59.6654 56.6329 59.5009 56.6685 59.3234L57.2425 56.4396L60.1263 55.8616C60.3039 55.8263 60.4686 55.7434 60.6028 55.6218C60.737 55.5002 60.8356 55.3444 60.8882 55.1711C60.9408 54.9978 60.9453 54.8135 60.9013 54.6378C60.8573 54.4622 60.7664 54.3018 60.6383 54.1737L56.8085 50.3459C56.714 50.2517 56.6017 50.1773 56.478 50.1272C56.3544 50.077 56.222 50.0521 56.0885 50.0539C56.0281 50.0552 55.9678 50.0619 55.9086 50.0739L52.8947 50.6739L49.9889 47.7681L50.4469 47.2681L50.9628 46.7021L51.0228 46.6281L51.7588 45.6402L52.3587 44.8402L50.7588 43.6443L50.1589 44.4443L49.4809 45.3542L49.4609 45.3742L48.9669 45.9242L48.575 46.3542L47.155 44.9342C50.6259 41.1463 52.6529 36.2576 52.8807 31.125H60.9303V29.1251H52.8807C52.3687 17.7857 43.2693 8.69024 31.9319 8.17626V0.126709H29.932ZM28.0061 4.30648L27.0182 4.45447L25.7442 4.64646L25.6442 4.66846L24.9603 4.84445L23.9903 5.09043L24.4863 7.03033L25.4562 6.78234L26.0462 6.62635H26.0662L27.3221 6.43436L28.3101 6.28237L28.0061 4.30648ZM33.7798 4.30648L33.4738 6.28237L34.4637 6.43436L35.7217 6.62635H35.7417L36.3296 6.78234L37.2996 7.02833L37.7956 5.09043L36.8256 4.84445L36.1416 4.66846L36.0417 4.64646L34.7677 4.45447L33.7798 4.30648ZM21.9944 5.7364L21.0565 6.08038L20.8565 6.15038L20.7685 6.19237L19.1546 6.96633L18.2566 7.40431L19.1246 9.20421L20.0225 8.77023L21.5845 8.01627L21.7444 7.95828L22.6824 7.61429L21.9944 5.7344V5.7364ZM39.7914 5.7364L39.1035 7.61629L40.0414 7.95828L40.2014 8.01827L41.7633 8.77023L42.6633 9.20421L43.5292 7.40431L42.6293 6.96433L41.0174 6.19237L40.9274 6.15038L40.7274 6.08038L39.7914 5.7364ZM16.3927 8.56424L15.5928 9.16421L14.4328 10.0362L14.3589 10.0902L13.9529 10.4621L13.2129 11.1341L14.5588 12.614L15.2968 11.9421L15.6588 11.6101L16.7927 10.7621L17.5927 10.1662L16.3927 8.56424ZM45.3911 8.56424L44.1912 10.1642L44.9932 10.7641L46.1271 11.6101L46.4891 11.9421L47.229 12.614L48.571 11.1341L47.833 10.4621L47.427 10.0902L47.353 10.0362L46.1931 9.16621L45.3931 8.56424H45.3911ZM29.932 10.1762V16.2818H31.9319V10.1762C36.8792 10.4185 41.5594 12.4927 45.0618 15.9952C48.5643 19.4976 50.6385 24.1778 50.8808 29.1251H44.7792V31.125H50.8788C50.6593 35.7295 48.8467 40.1146 45.7511 43.5303L40.0834 37.8626C41.9223 35.704 42.932 32.9608 42.9313 30.125C42.9313 23.5094 37.5476 18.1257 30.9319 18.1257C24.3163 18.1257 18.9326 23.5094 18.9326 30.125C18.9326 36.7407 24.3163 42.1244 30.9319 42.1244C33.7682 42.1245 36.5118 41.115 38.6715 39.2765L44.3372 44.9442C40.9214 48.0398 36.5364 49.8531 31.9319 50.0739V43.9723H29.932V50.0719C24.9849 49.8301 20.3047 47.7563 16.8022 44.2542C13.2997 40.752 11.2254 36.0721 10.983 31.125H17.0847V29.1251H10.985C11.2273 24.1781 13.3013 19.4982 16.8033 15.9958C20.3053 12.4934 24.9851 10.419 29.932 10.1762ZM11.741 12.622L11.069 13.368L10.901 13.552L10.841 13.626L9.7931 15.0279L9.19314 15.8278L10.797 17.0278L11.393 16.2278L12.383 14.8999L12.403 14.8759L12.551 14.7079L13.2229 13.9679L11.743 12.622H11.741ZM50.0449 12.622L48.565 13.9699L49.2349 14.7079L49.3849 14.8759L49.4049 14.8999L50.3909 16.2278L50.9908 17.0278L52.5907 15.8278L51.9928 15.0279L50.9468 13.626L50.8848 13.552L50.7168 13.368L50.0449 12.622ZM8.0772 17.7197L7.64322 18.6197L6.99526 19.9616L6.96126 20.0516L6.78527 20.5316L6.44129 21.4695L8.32118 22.1575L8.66317 21.2175L8.81116 20.8056L9.44512 19.4896L9.8791 18.5857L8.0772 17.7197ZM53.7087 17.7197L51.9088 18.5857L52.3408 19.4896L52.9727 20.8056L53.1227 21.2195L53.4667 22.1575L55.3446 21.4695L55.0006 20.5316L54.8246 20.0516L54.7906 19.9616L54.1406 18.6177L53.7087 17.7177V17.7197ZM30.9319 20.1256C36.4656 20.1256 40.9314 24.5914 40.9314 30.125C40.9314 32.5309 40.0534 34.7048 38.6455 36.4247L34.3617 32.1409C34.7302 31.5327 34.9271 30.8361 34.9317 30.125C34.9317 27.9272 33.1298 26.1253 30.9319 26.1253C28.7341 26.1253 26.9322 27.9272 26.9322 30.125C26.9322 32.3229 28.7341 34.1248 30.9319 34.1248C31.6699 34.1248 32.3519 33.9068 32.9478 33.5549L37.2316 37.8386C35.4606 39.3086 33.2335 40.1168 30.9319 40.1245C25.3982 40.1245 20.9325 35.6587 20.9325 30.125C20.9325 24.5914 25.3982 20.1256 30.9319 20.1256ZM5.82332 23.4734L5.57334 24.4414L5.47334 24.8413L5.45334 24.9373L5.21336 26.5072L5.06137 27.4972L7.03926 27.8012L7.19125 26.8132L7.42123 25.2933L7.51123 24.9413L7.76122 23.9734L5.82332 23.4734ZM55.9605 23.4734L54.0247 23.9734L54.2746 24.9413L54.3646 25.2933L54.5946 26.8132L54.7466 27.8012L56.7225 27.4972L56.5705 26.5072L56.3325 24.9373L56.3125 24.8393L56.2125 24.4414L55.9626 23.4734H55.9605ZM30.9319 28.1252C32.0479 28.1252 32.9318 29.0091 32.9318 30.125C32.9318 30.299 32.8758 30.453 32.8338 30.613L31.6399 29.4171C31.5461 29.3214 31.434 29.2455 31.3104 29.194C31.1867 29.1425 31.0539 29.1163 30.9199 29.1171C30.7213 29.1175 30.5272 29.1771 30.3626 29.2883C30.1979 29.3994 30.0701 29.5571 29.9954 29.7412C29.9207 29.9253 29.9026 30.1275 29.9433 30.3219C29.984 30.5164 30.0817 30.6943 30.224 30.833L31.4199 32.0269C31.2599 32.0669 31.1059 32.1249 30.9319 32.1249C29.816 32.1249 28.932 31.241 28.932 30.125C28.932 29.0091 29.816 28.1252 30.9319 28.1252ZM7.03926 32.9649L5.06137 33.2649L5.21536 34.2528L5.37535 35.3128L5.39535 35.4128L5.62533 36.3167L5.87532 37.2807L7.81121 36.7847L7.56123 35.8167L7.34324 34.9648L7.19125 33.9568L7.03926 32.9649ZM54.7466 32.9649L54.5946 33.9568L54.4426 34.9648L54.2226 35.8167L53.9727 36.7847L55.9126 37.2807L56.1605 36.3167L56.3905 35.4148L56.4105 35.3128L56.5705 34.2528L56.7225 33.2649L54.7466 32.9649ZM8.29319 38.5306L6.48729 39.3985L6.92126 40.2985L7.79321 42.1004L8.22519 43.0023L10.0251 42.1364L9.59311 41.2344L8.72516 39.4345L8.29319 38.5306ZM53.4927 38.5306L53.0587 39.4325L52.1928 41.2324L51.7588 42.1364L53.5587 43.0023L53.9927 42.1024L54.8646 40.3005L55.2986 39.3985L53.4927 38.5306ZM11.027 43.6443L9.42712 44.8382L10.0271 45.6382L10.7611 46.6281L10.823 46.7021L11.339 47.2681L12.015 48.0101L13.4949 46.6641L12.8189 45.9242L12.323 45.3742L12.303 45.3542L11.629 44.4443L11.027 43.6443ZM14.8628 47.9921L13.5189 49.472L14.2589 50.1439L14.2789 50.1639L14.3549 50.2239L15.9328 51.4039L16.7327 52.0058L17.9287 50.4019L17.1287 49.802L15.6048 48.666L15.5928 48.646L14.8628 47.9921ZM46.923 47.9921L46.1931 48.648L46.1811 48.668L44.6572 49.804L43.8572 50.4019L45.0532 52.0058L45.8531 51.4059L47.431 50.2259L47.505 50.1639L47.529 50.1439L48.267 49.472L46.923 47.9921ZM19.5146 51.2719L18.6426 53.0718L19.5466 53.5058L20.6905 54.0577L20.7805 54.0997L21.4645 54.3497L22.4044 54.6937L23.0924 52.8138L22.1524 52.4718L21.5025 52.2318L20.4125 51.7099L19.5146 51.2719ZM42.2713 51.2719L41.3714 51.7099L40.2834 52.2338L39.6355 52.4718L38.6935 52.8158L39.3815 54.6957L40.3214 54.3497L41.0054 54.0997L41.0954 54.0577L42.2393 53.5058L43.1413 53.0738L42.2713 51.2739V51.2719ZM55.7746 52.1398L57.9024 54.2677L56.2005 54.6077C56.0065 54.6462 55.8282 54.7415 55.6883 54.8814C55.5484 55.0213 55.4531 55.1996 55.4146 55.3937L55.0746 57.0956L52.9467 54.9677L53.3667 52.8498C53.4803 52.7755 53.5776 52.6789 53.6527 52.5658L55.7726 52.1398H55.7746ZM24.9123 53.3538L24.4163 55.2917L25.3862 55.5376L25.5662 55.5836L25.6662 55.6036L27.4561 55.8776L28.4441 56.0296L28.7441 54.0537L27.7561 53.9017L26.0182 53.6357L25.8822 53.5998L24.9123 53.3538ZM36.8716 53.3538L35.9037 53.5998L35.7677 53.6357L34.0278 53.9017L33.0418 54.0537L33.3418 56.0296L34.3297 55.8776L36.1196 55.6036L36.2196 55.5836L36.3996 55.5376L37.3696 55.2917L36.8736 53.3538H36.8716Z" fill="#00367D"/>
</svg>
