<svg width="81" height="51" viewBox="0 0 81 51" fill="none" xmlns="http://www.w3.org/2000/svg">
<path d="M71.1103 7.41536C66.768 3.08391 60.9829 0.502854 54.8589 0.1647C48.7349 -0.173453 42.7007 1.75497 37.9079 5.58199H20.247C19.9124 5.58199 19.5915 5.7149 19.355 5.95148C19.1184 6.18805 18.9855 6.50892 18.9855 6.84349C18.9855 7.17805 19.1184 7.49892 19.355 7.7355C19.5915 7.97207 19.9124 8.10498 20.247 8.10498H35.2167C33.8191 9.6072 32.613 11.2767 31.6256 13.0753H11.7866C11.452 13.0753 11.1311 13.2082 10.8945 13.4447C10.658 13.6813 10.5251 14.0022 10.5251 14.3368C10.5251 14.6713 10.658 14.9922 10.8945 15.2288C11.1311 15.4653 11.452 15.5982 11.7866 15.5982H30.4146C28.8875 19.3471 28.2902 23.4097 28.6737 27.4395H20.2638C19.9292 27.4395 19.6084 27.5724 19.3718 27.8089C19.1352 28.0455 19.0023 28.3664 19.0023 28.7009C19.0023 29.0355 19.1352 29.3564 19.3718 29.593C19.6084 29.8295 19.9292 29.9624 20.2638 29.9624H29.0522C29.3764 31.5911 29.8638 33.183 30.5071 34.7141H11.7866C11.452 34.7141 11.1311 34.847 10.8945 35.0835C10.658 35.3201 10.5251 35.641 10.5251 35.9755C10.5251 36.3101 10.658 36.631 10.8945 36.8676C11.1311 37.1041 11.452 37.237 11.7866 37.237H31.7434C32.6996 38.9696 33.8631 40.5793 35.2083 42.0307H8.72533C8.39077 42.0307 8.0699 42.1636 7.83332 42.4002C7.59675 42.6368 7.46384 42.9576 7.46384 43.2922C7.46384 43.6268 7.59675 43.9476 7.83332 44.1842C8.0699 44.4208 8.39077 44.5537 8.72533 44.5537H37.0753C37.2962 44.551 37.513 44.4931 37.706 44.3855C42.6557 48.4901 48.9996 50.5239 55.4132 50.0623C61.8267 49.6007 67.814 46.6794 72.1249 41.9084C76.4358 37.1373 78.737 30.8854 78.5479 24.458C78.3589 18.0307 75.6942 11.9248 71.1103 7.41536ZM69.3274 40.8954C66.1934 44.0268 62.2014 46.1588 57.8559 47.0218C53.5104 47.8848 49.0066 47.44 44.9139 45.7438C40.8211 44.0475 37.3232 41.1759 34.8622 37.492C32.4012 33.808 31.0877 29.4772 31.0877 25.0468C31.0877 20.6165 32.4012 16.2856 34.8622 12.6017C37.3232 8.91773 40.8211 6.04612 44.9139 4.34987C49.0066 2.65362 53.5104 2.20888 57.8559 3.07187C62.2014 3.93486 66.1934 6.06683 69.3274 9.19827C73.5227 13.4058 75.8785 19.1051 75.8785 25.0468C75.8785 30.9885 73.5227 36.6878 69.3274 40.8954Z" fill="#00367D"/>
<path d="M53.4831 6.28002C49.7722 6.28002 46.1446 7.38042 43.0591 9.44209C39.9737 11.5037 37.5688 14.4341 36.1487 17.8625C34.7286 21.2909 34.3571 25.0634 35.081 28.703C35.805 32.3426 37.5919 35.6858 40.2159 38.3098C42.8399 40.9338 46.1831 42.7207 49.8227 43.4447C53.4623 44.1687 57.2348 43.7971 60.6632 42.377C64.0916 40.9569 67.022 38.552 69.0836 35.4666C71.1453 32.3811 72.2457 28.7535 72.2457 25.0426C72.239 20.0685 70.2601 15.3001 66.7429 11.7828C63.2257 8.26561 58.4572 6.28669 53.4831 6.28002ZM54.7446 41.1897V39.718C54.7446 39.3834 54.6117 39.0625 54.3751 38.826C54.1385 38.5894 53.8177 38.4565 53.4831 38.4565C53.1485 38.4565 52.8277 38.5894 52.5911 38.826C52.3545 39.0625 52.2216 39.3834 52.2216 39.718V41.1897C48.3729 40.8846 44.7587 39.219 42.0264 36.4913C39.2941 33.7637 37.6224 30.1523 37.3108 26.3041H38.8077C39.1423 26.3041 39.4632 26.1712 39.6997 25.9346C39.9363 25.6981 40.0692 25.3772 40.0692 25.0426C40.0692 24.708 39.9363 24.3872 39.6997 24.1506C39.4632 23.914 39.1423 23.7811 38.8077 23.7811H37.3108C37.615 19.9279 39.2837 16.3095 42.0168 13.5764C44.75 10.8432 48.3683 9.17455 52.2216 8.87028V10.3673C52.2216 10.7018 52.3545 11.0227 52.5911 11.2593C52.8277 11.4958 53.1485 11.6287 53.4831 11.6287C53.8177 11.6287 54.1385 11.4958 54.3751 11.2593C54.6117 11.0227 54.7446 10.7018 54.7446 10.3673V8.87028C58.5978 9.17455 62.2162 10.8432 64.9493 13.5764C67.6825 16.3095 69.3512 19.9279 69.6554 23.7811H68.1585C67.8239 23.7811 67.503 23.914 67.2664 24.1506C67.0299 24.3872 66.897 24.708 66.897 25.0426C66.897 25.3772 67.0299 25.6981 67.2664 25.9346C67.503 26.1712 67.8239 26.3041 68.1585 26.3041H69.6554C69.3438 30.1523 67.6721 33.7637 64.9398 36.4913C62.2075 39.219 58.5933 40.8846 54.7446 41.1897Z" fill="#00367D"/>
<path d="M60.4129 27.9861L55.123 24.6221L60.6147 13.6892C60.7154 13.3975 60.7056 13.0791 60.5873 12.7941C60.4691 12.5091 60.2504 12.2773 59.9728 12.1427C59.6952 12.008 59.3778 11.9798 59.0808 12.0633C58.7838 12.1468 58.5276 12.3363 58.3609 12.5959L52.3562 24.4792C52.2152 24.758 52.1828 25.0793 52.2651 25.3807C52.3474 25.6821 52.5387 25.9422 52.8019 26.1107L59.0505 30.1138C59.2516 30.2413 59.4851 30.3085 59.7233 30.3072C59.996 30.3084 60.2618 30.221 60.4807 30.0584C60.6997 29.8957 60.86 29.6665 60.9377 29.405C61.0154 29.1436 61.0062 28.864 60.9116 28.6082C60.817 28.3523 60.642 28.1341 60.4129 27.9861ZM16.1093 28.6925C16.1093 28.358 15.9764 28.0371 15.7398 27.8005C15.5032 27.5639 15.1823 27.431 14.8478 27.431H1.46755C1.13298 27.431 0.812113 27.5639 0.575537 27.8005C0.338962 28.0371 0.206055 28.358 0.206055 28.6925C0.206055 29.0271 0.338962 29.348 0.575537 29.5845C0.812113 29.8211 1.13298 29.954 1.46755 29.954H14.8646C15.1962 29.9496 15.5128 29.8148 15.7458 29.5787C15.9787 29.3426 16.1093 29.0242 16.1093 28.6925ZM7.64886 8.09657H14.8646C15.1992 8.09657 15.52 7.96366 15.7566 7.72709C15.9932 7.49051 16.1261 7.16964 16.1261 6.83507C16.1261 6.50051 15.9932 6.17964 15.7566 5.94307C15.52 5.70649 15.1992 5.57358 14.8646 5.57358H7.64886C7.31429 5.57358 6.99343 5.70649 6.75685 5.94307C6.52028 6.17964 6.38737 6.50051 6.38737 6.83507C6.38737 7.16964 6.52028 7.49051 6.75685 7.72709C6.99343 7.96366 7.31429 8.09657 7.64886 8.09657ZM6.27804 22.6878H22.9045C23.2391 22.6878 23.5599 22.5549 23.7965 22.3183C24.0331 22.0818 24.166 21.7609 24.166 21.4263C24.166 21.0918 24.0331 20.7709 23.7965 20.5343C23.5599 20.2978 23.2391 20.1648 22.9045 20.1648H6.27804C5.94347 20.1648 5.6226 20.2978 5.38603 20.5343C5.14945 20.7709 5.01655 21.0918 5.01655 21.4263C5.01655 21.7609 5.14945 22.0818 5.38603 22.3183C5.6226 22.5549 5.94347 22.6878 6.27804 22.6878Z" fill="#00367D"/>
</svg>
