<svg width="70" height="70" viewBox="0 0 70 70" fill="none" xmlns="http://www.w3.org/2000/svg">
<g clip-path="url(#clip0_49_901)">
<path d="M51.6695 61.0196H18.4534C13.2864 61.0196 9.10364 56.8369 9.10364 51.6699V18.4537C9.10364 13.2868 13.2864 9.104 18.4534 9.104H51.6695C56.8365 9.104 61.0193 13.2868 61.0193 18.4537V51.6699C61.0193 56.8369 56.8365 61.0196 51.6695 61.0196Z" stroke="#9C9C9C" stroke-width="2" stroke-miterlimit="10" stroke-linecap="round" stroke-linejoin="round"/>
<path d="M51.4236 55.7292H18.6995C16.239 55.7292 14.3937 53.7609 14.3937 51.4234V18.6994C14.3937 16.2389 16.362 14.3936 18.6995 14.3936H51.4236C53.884 14.3936 55.7293 16.3619 55.7293 18.6994V51.4234C55.7293 53.7609 53.761 55.7292 51.4236 55.7292Z" stroke="#9C9C9C" stroke-width="2" stroke-miterlimit="10" stroke-linecap="round" stroke-linejoin="round"/>
<path d="M18.2074 9.10381V0.615234" stroke="#9C9C9C" stroke-width="2" stroke-miterlimit="10" stroke-linecap="round" stroke-linejoin="round"/>
<path d="M23.7434 9.10381V0.615234" stroke="#9C9C9C" stroke-width="2" stroke-miterlimit="10" stroke-linecap="round" stroke-linejoin="round"/>
<path d="M29.4025 9.10381V0.615234" stroke="#9C9C9C" stroke-width="2" stroke-miterlimit="10" stroke-linecap="round" stroke-linejoin="round"/>
<path d="M35.0615 9.10381V0.615234" stroke="#9C9C9C" stroke-width="2" stroke-miterlimit="10" stroke-linecap="round" stroke-linejoin="round"/>
<path d="M40.5975 9.10381V0.615234" stroke="#9C9C9C" stroke-width="2" stroke-miterlimit="10" stroke-linecap="round" stroke-linejoin="round"/>
<path d="M46.2566 9.10381V0.615234" stroke="#9C9C9C" stroke-width="2" stroke-miterlimit="10" stroke-linecap="round" stroke-linejoin="round"/>
<path d="M51.9156 9.10381V0.615234" stroke="#9C9C9C" stroke-width="2" stroke-miterlimit="10" stroke-linecap="round" stroke-linejoin="round"/>
<path d="M18.2074 69.3851V61.0195" stroke="#9C9C9C" stroke-width="2" stroke-miterlimit="10" stroke-linecap="round" stroke-linejoin="round"/>
<path d="M23.7434 69.3851V61.0195" stroke="#9C9C9C" stroke-width="2" stroke-miterlimit="10" stroke-linecap="round" stroke-linejoin="round"/>
<path d="M29.4025 69.3851V61.0195" stroke="#9C9C9C" stroke-width="2" stroke-miterlimit="10" stroke-linecap="round" stroke-linejoin="round"/>
<path d="M35.0615 69.3851V61.0195" stroke="#9C9C9C" stroke-width="2" stroke-miterlimit="10" stroke-linecap="round" stroke-linejoin="round"/>
<path d="M40.5975 69.3851V61.0195" stroke="#9C9C9C" stroke-width="2" stroke-miterlimit="10" stroke-linecap="round" stroke-linejoin="round"/>
<path d="M46.2566 69.3851V61.0195" stroke="#9C9C9C" stroke-width="2" stroke-miterlimit="10" stroke-linecap="round" stroke-linejoin="round"/>
<path d="M51.9156 69.3851V61.0195" stroke="#9C9C9C" stroke-width="2" stroke-miterlimit="10" stroke-linecap="round" stroke-linejoin="round"/>
<path d="M9.10369 51.916H0.615112" stroke="#9C9C9C" stroke-width="2" stroke-miterlimit="10" stroke-linecap="round" stroke-linejoin="round"/>
<path d="M9.10369 46.2568H0.615112" stroke="#9C9C9C" stroke-width="2" stroke-miterlimit="10" stroke-linecap="round" stroke-linejoin="round"/>
<path d="M9.10369 40.5977H0.615112" stroke="#9C9C9C" stroke-width="2" stroke-miterlimit="10" stroke-linecap="round" stroke-linejoin="round"/>
<path d="M9.10369 35.0615H0.615112" stroke="#9C9C9C" stroke-width="2" stroke-miterlimit="10" stroke-linecap="round" stroke-linejoin="round"/>
<path d="M9.10369 29.4028H0.615112" stroke="#9C9C9C" stroke-width="2" stroke-miterlimit="10" stroke-linecap="round" stroke-linejoin="round"/>
<path d="M9.10369 23.7437H0.615112" stroke="#9C9C9C" stroke-width="2" stroke-miterlimit="10" stroke-linecap="round" stroke-linejoin="round"/>
<path d="M9.10369 18.2075H0.615112" stroke="#9C9C9C" stroke-width="2" stroke-miterlimit="10" stroke-linecap="round" stroke-linejoin="round"/>
<path d="M69.3848 51.916H61.0193" stroke="#9C9C9C" stroke-width="2" stroke-miterlimit="10" stroke-linecap="round" stroke-linejoin="round"/>
<path d="M69.3848 46.2568H61.0193" stroke="#9C9C9C" stroke-width="2" stroke-miterlimit="10" stroke-linecap="round" stroke-linejoin="round"/>
<path d="M69.3848 40.5977H61.0193" stroke="#9C9C9C" stroke-width="2" stroke-miterlimit="10" stroke-linecap="round" stroke-linejoin="round"/>
<path d="M69.3848 35.0615H61.0193" stroke="#9C9C9C" stroke-width="2" stroke-miterlimit="10" stroke-linecap="round" stroke-linejoin="round"/>
<path d="M69.3848 29.4028H61.0193" stroke="#9C9C9C" stroke-width="2" stroke-miterlimit="10" stroke-linecap="round" stroke-linejoin="round"/>
<path d="M69.3848 23.7437H61.0193" stroke="#9C9C9C" stroke-width="2" stroke-miterlimit="10" stroke-linecap="round" stroke-linejoin="round"/>
<path d="M69.3848 18.2075H61.0193" stroke="#9C9C9C" stroke-width="2" stroke-miterlimit="10" stroke-linecap="round" stroke-linejoin="round"/>
<path d="M42.4428 47.6099H37.645L35.1845 40.7206H26.8189L24.3585 47.6099H19.8066L29.0334 22.7593H32.9701L42.4428 47.6099ZM28.0492 37.153H33.8312L32.2319 31.986C31.9859 31.1248 31.7399 30.5097 31.4938 29.8946C31.3708 29.2795 31.1247 28.7874 31.0017 28.1723C30.8787 28.5414 30.8787 28.7874 30.7557 29.1565C30.6327 29.4025 30.6327 29.7716 30.5096 30.0176C30.3866 30.2637 30.2636 30.6327 30.2636 30.8788C30.1406 31.2479 30.0175 31.6169 29.8945 31.986L28.0492 37.153Z" fill="#00367D"/>
<path d="M44.1652 22.7593H48.594V47.6099H44.1652V22.7593Z" fill="#00367D"/>
</g>
<defs>
<clipPath id="clip0_49_901">
<rect width="70" height="70" fill="white"/>
</clipPath>
</defs>
</svg>
